# xmcd
#
# Track frame offsets: 
#        150
#        19295
#        39104
#        57867
#        82182
#        98988
#        122028
#        142213
#        159969
#        176775
#        197746
#
# Disc length: 2933 seconds
#
# Revision: 0
# Processed by: cddbd v1.5.2PL0 Copyright (c) Steve Scherf et al.
# Submitted via: ExactAudioCopy v1.3
#
DISCID=960b730b
DTITLE=Mike Brookfield - Brookfield
DYEAR=2017
DGENRE=Blues Rock
TTITLE0=A Message for Willie Johnson
TTITLE1=Beaten to Death by the Blues
TTITLE2=Zombie Craze
TTITLE3=Suitcase Blues
TTITLE4=Don't Close the Gates
TTITLE5=Living In a Better World
TTITLE6=Letter From the Devil
TTITLE7=High Class Shoes
TTITLE8=Gun Crime
TTITLE9=This Restless Heart
TTITLE10=Written In Chains
EXTD=
EXTT0=
EXTT1=
EXTT2=
EXTT3=
EXTT4=
EXTT5=
EXTT6=
EXTT7=
EXTT8=
EXTT9=
EXTT10=
PLAYORDER=
